<mxfile host="app.diagrams.net" modified="2024-05-02T03:32:19.245Z" agent="Mozilla/5.0 (Windows NT 10.0; Win64; x64) AppleWebKit/537.36 (KHTML, like Gecko) Chrome/116.0.0.0 Safari/537.36" etag="8WGQ2at0AYWF1uteZzxR" version="24.3.1" type="device">
  <diagram name="Page-1" id="o1uOn9DB7B0YclMaqsfE">
    <mxGraphModel dx="1395" dy="658" grid="1" gridSize="10" guides="1" tooltips="1" connect="1" arrows="1" fold="1" page="1" pageScale="1" pageWidth="827" pageHeight="1169" math="0" shadow="0">
      <root>
        <mxCell id="0" />
        <mxCell id="1" parent="0" />
        <mxCell id="WwPnN9ideLin_ZEmexQz-1" value="web Browser" style="ellipse;whiteSpace=wrap;html=1;" vertex="1" parent="1">
          <mxGeometry x="290" y="130" width="184" height="90" as="geometry" />
        </mxCell>
        <mxCell id="WwPnN9ideLin_ZEmexQz-5" style="edgeStyle=orthogonalEdgeStyle;rounded=0;orthogonalLoop=1;jettySize=auto;html=1;entryX=0;entryY=0.5;entryDx=0;entryDy=0;" edge="1" parent="1">
          <mxGeometry relative="1" as="geometry">
            <mxPoint x="260" y="340" as="sourcePoint" />
            <mxPoint x="480" y="340" as="targetPoint" />
          </mxGeometry>
        </mxCell>
        <mxCell id="WwPnN9ideLin_ZEmexQz-9" style="edgeStyle=none;rounded=0;orthogonalLoop=1;jettySize=auto;html=1;exitX=0;exitY=1;exitDx=0;exitDy=0;entryX=0.75;entryY=0;entryDx=0;entryDy=0;" edge="1" parent="1" source="WwPnN9ideLin_ZEmexQz-1" target="WwPnN9ideLin_ZEmexQz-2">
          <mxGeometry relative="1" as="geometry" />
        </mxCell>
        <mxCell id="WwPnN9ideLin_ZEmexQz-2" value="Controller&amp;nbsp;&lt;div style=&quot;&quot;&gt;&lt;ul&gt;&lt;li style=&quot;text-align: left;&quot;&gt;HTTP request processing&lt;/li&gt;&lt;li style=&quot;text-align: left;&quot;&gt;Application specific logic&lt;/li&gt;&lt;li style=&quot;text-align: left;&quot;&gt;Data validation&lt;/li&gt;&lt;/ul&gt;&lt;/div&gt;" style="rounded=1;whiteSpace=wrap;html=1;align=center;" vertex="1" parent="1">
          <mxGeometry x="50" y="310" width="210" height="110" as="geometry" />
        </mxCell>
        <mxCell id="WwPnN9ideLin_ZEmexQz-6" style="edgeStyle=orthogonalEdgeStyle;rounded=0;orthogonalLoop=1;jettySize=auto;html=1;entryX=1;entryY=0.5;entryDx=0;entryDy=0;" edge="1" parent="1">
          <mxGeometry relative="1" as="geometry">
            <mxPoint x="480" y="390" as="sourcePoint" />
            <mxPoint x="260" y="390" as="targetPoint" />
          </mxGeometry>
        </mxCell>
        <mxCell id="WwPnN9ideLin_ZEmexQz-10" style="edgeStyle=none;rounded=0;orthogonalLoop=1;jettySize=auto;html=1;exitX=0.25;exitY=0;exitDx=0;exitDy=0;entryX=1;entryY=1;entryDx=0;entryDy=0;" edge="1" parent="1" source="WwPnN9ideLin_ZEmexQz-4" target="WwPnN9ideLin_ZEmexQz-1">
          <mxGeometry relative="1" as="geometry" />
        </mxCell>
        <mxCell id="WwPnN9ideLin_ZEmexQz-4" value="View&amp;nbsp;&lt;div style=&quot;&quot;&gt;&lt;ul&gt;&lt;li style=&quot;text-align: left;&quot;&gt;Dynamic page generation&lt;/li&gt;&lt;li style=&quot;text-align: left;&quot;&gt;Forms management&amp;nbsp;&lt;/li&gt;&lt;/ul&gt;&lt;div style=&quot;text-align: left;&quot;&gt;&lt;br&gt;&lt;/div&gt;&lt;/div&gt;" style="rounded=1;whiteSpace=wrap;html=1;align=center;" vertex="1" parent="1">
          <mxGeometry x="480" y="310" width="210" height="110" as="geometry" />
        </mxCell>
        <mxCell id="WwPnN9ideLin_ZEmexQz-13" style="edgeStyle=orthogonalEdgeStyle;rounded=0;orthogonalLoop=1;jettySize=auto;html=1;exitX=0.75;exitY=1;exitDx=0;exitDy=0;entryX=1;entryY=0.75;entryDx=0;entryDy=0;" edge="1" parent="1" source="WwPnN9ideLin_ZEmexQz-4" target="WwPnN9ideLin_ZEmexQz-11">
          <mxGeometry relative="1" as="geometry" />
        </mxCell>
        <mxCell id="WwPnN9ideLin_ZEmexQz-14" style="edgeStyle=orthogonalEdgeStyle;rounded=0;orthogonalLoop=1;jettySize=auto;html=1;exitX=0.5;exitY=1;exitDx=0;exitDy=0;entryX=0;entryY=0.5;entryDx=0;entryDy=0;" edge="1" parent="1" source="WwPnN9ideLin_ZEmexQz-2" target="WwPnN9ideLin_ZEmexQz-11">
          <mxGeometry relative="1" as="geometry" />
        </mxCell>
        <mxCell id="WwPnN9ideLin_ZEmexQz-11" value="Model&amp;nbsp;&lt;div style=&quot;&quot;&gt;&lt;ul&gt;&lt;li style=&quot;text-align: left;&quot;&gt;Business Logic&amp;nbsp;&lt;/li&gt;&lt;li style=&quot;text-align: left;&quot;&gt;Database&lt;/li&gt;&lt;/ul&gt;&lt;/div&gt;" style="rounded=1;whiteSpace=wrap;html=1;align=center;" vertex="1" parent="1">
          <mxGeometry x="260" y="570" width="210" height="110" as="geometry" />
        </mxCell>
        <mxCell id="WwPnN9ideLin_ZEmexQz-12" style="edgeStyle=orthogonalEdgeStyle;rounded=0;orthogonalLoop=1;jettySize=auto;html=1;exitX=1;exitY=0.25;exitDx=0;exitDy=0;entryX=0.376;entryY=1.027;entryDx=0;entryDy=0;entryPerimeter=0;" edge="1" parent="1" source="WwPnN9ideLin_ZEmexQz-11" target="WwPnN9ideLin_ZEmexQz-4">
          <mxGeometry relative="1" as="geometry" />
        </mxCell>
        <mxCell id="WwPnN9ideLin_ZEmexQz-15" value="Form to&lt;div&gt;display&lt;/div&gt;" style="text;html=1;align=center;verticalAlign=middle;resizable=0;points=[];autosize=1;strokeColor=none;fillColor=none;" vertex="1" parent="1">
          <mxGeometry x="350" y="293" width="60" height="40" as="geometry" />
        </mxCell>
        <mxCell id="WwPnN9ideLin_ZEmexQz-16" value="User events" style="text;html=1;align=center;verticalAlign=middle;resizable=0;points=[];autosize=1;strokeColor=none;fillColor=none;" vertex="1" parent="1">
          <mxGeometry x="335" y="400" width="90" height="30" as="geometry" />
        </mxCell>
        <mxCell id="WwPnN9ideLin_ZEmexQz-17" value="Change&lt;div&gt;notification&lt;/div&gt;" style="text;html=1;align=center;verticalAlign=middle;resizable=0;points=[];autosize=1;strokeColor=none;fillColor=none;" vertex="1" parent="1">
          <mxGeometry x="480" y="493" width="80" height="40" as="geometry" />
        </mxCell>
        <mxCell id="WwPnN9ideLin_ZEmexQz-18" value="Refresh&lt;div&gt;request&lt;/div&gt;" style="text;html=1;align=center;verticalAlign=middle;resizable=0;points=[];autosize=1;strokeColor=none;fillColor=none;" vertex="1" parent="1">
          <mxGeometry x="645" y="493" width="70" height="40" as="geometry" />
        </mxCell>
        <mxCell id="WwPnN9ideLin_ZEmexQz-19" value="Update&lt;div&gt;request&lt;/div&gt;" style="text;html=1;align=center;verticalAlign=middle;resizable=0;points=[];autosize=1;strokeColor=none;fillColor=none;" vertex="1" parent="1">
          <mxGeometry x="80" y="493" width="60" height="40" as="geometry" />
        </mxCell>
      </root>
    </mxGraphModel>
  </diagram>
</mxfile>
